<?xml version="1.0" standalone="no"?>
<!DOCTYPE svg PUBLIC "-//W3C//DTD SVG 20010904//EN"
 "http://www.w3.org/TR/2001/REC-SVG-20010904/DTD/svg10.dtd">
<svg version="1.0" xmlns="http://www.w3.org/2000/svg"
 width="512.000000pt" height="512.000000pt" viewBox="0 0 512.000000 512.000000"
 preserveAspectRatio="xMidYMid meet">
<metadata>
Created by potrace 1.16, written by Peter Selinger 2001-2019
</metadata>
<g transform="translate(0.000000,512.000000) scale(0.100000,-0.100000)"
fill="#000000" stroke="none">
<path d="M301 5100 c-119 -43 -207 -123 -264 -239 l-32 -66 0 -1525 0 -1525
32 -66 c58 -119 148 -198 269 -239 58 -20 87 -20 2274 -18 l2215 3 70 34 c92
45 171 124 216 216 l34 70 0 1525 0 1525 -34 70 c-45 92 -124 171 -216 216
l-70 34 -2220 2 c-2171 2 -2221 2 -2274 -17z m4439 -307 c19 -12 44 -37 55
-55 20 -33 20 -51 20 -1468 0 -1417 0 -1435 -20 -1468 -11 -18 -36 -43 -55
-55 l-35 -22 -2145 0 -2145 0 -35 22 c-19 12 -44 37 -55 55 -20 33 -20 51 -20
1468 l0 1435 22 35 c24 39 53 60 98 71 17 4 986 6 2155 6 l2125 -2 35 -22z"/>
<path d="M1279 4497 c-236 -80 -379 -279 -379 -526 0 -129 26 -216 100 -328
l21 -32 -58 -39 c-152 -103 -273 -269 -333 -457 -18 -56 -24 -101 -28 -229 -5
-180 2 -208 63 -246 31 -19 53 -20 785 -20 732 0 754 1 785 20 61 38 68 66 63
246 -6 183 -21 244 -95 386 -64 122 -177 246 -285 314 l-39 25 21 32 c75 114
100 198 100 331 0 78 -6 116 -23 167 -61 180 -196 309 -376 363 -83 25 -239
21 -322 -7z m274 -308 c91 -46 137 -120 137 -222 0 -131 -106 -237 -237 -237
-142 0 -243 100 -243 240 0 138 100 239 238 240 45 0 75 -6 105 -21z m63 -804
c172 -58 291 -177 349 -348 44 -132 108 -117 -515 -117 -623 0 -559 -14 -515
116 30 89 62 143 124 208 142 150 364 206 557 141z"/>
<path d="M2686 4501 c-46 -31 -66 -69 -66 -131 0 -62 20 -100 66 -131 28 -18
63 -19 884 -19 821 0 856 1 884 19 46 31 66 69 66 131 0 62 -20 100 -66 131
-28 18 -63 19 -884 19 -821 0 -856 -1 -884 -19z"/>
<path d="M2686 3901 c-15 -10 -37 -32 -47 -47 -18 -28 -19 -63 -19 -884 0
-821 1 -856 19 -884 10 -15 32 -37 47 -47 28 -18 63 -19 884 -19 821 0 856 1
884 19 15 10 37 32 47 47 18 28 19 63 19 884 0 821 -1 856 -19 884 -10 15 -32
37 -47 47 -28 18 -63 19 -884 19 -821 0 -856 -1 -884 -19z m1534 -931 l0 -650
-650 0 -650 0 0 650 0 650 650 0 650 0 0 -650z"/>
<path d="M3830 3325 c-19 -9 -109 -90 -200 -181 l-165 -164 -55 56 c-70 70
-96 84 -164 84 -44 0 -60 -5 -86 -26 -17 -15 -37 -39 -45 -55 -18 -33 -20
-101 -4 -132 6 -12 70 -82 143 -155 141 -142 169 -159 244 -146 32 5 71 40
275 243 131 130 245 248 253 263 33 63 6 166 -52 200 -44 25 -103 31 -144 13z"/>
<path d="M666 2301 c-46 -31 -66 -69 -66 -131 0 -62 20 -100 66 -131 28 -18
61 -19 784 -19 723 0 756 1 784 19 46 31 66 69 66 131 0 62 -20 100 -66 131
-28 18 -61 19 -784 19 -723 0 -756 -1 -784 -19z"/>
<path d="M560 905 c-519 -232 -515 -229 -540 -270 -40 -64 -21 -169 36 -210
11 -7 228 -106 483 -219 l464 -206 1936 2 1936 3 50 25 c64 31 134 101 165
165 25 50 25 51 25 355 0 304 0 305 -25 355 -31 64 -101 134 -165 165 l-50 25
-1940 2 -1940 2 -435 -194z m3560 -355 l0 -250 -1460 0 -1460 0 0 250 0 250
1460 0 1460 0 0 -250z m682 232 c19 -19 19 -445 0 -464 -9 -9 -63 -14 -197
-16 l-185 -3 0 251 0 251 185 -3 c134 -2 188 -7 197 -16z m-3902 -233 c0 -88
-4 -159 -9 -157 -67 26 -341 153 -341 158 0 6 324 157 343 159 4 1 7 -71 7
-160z"/>
</g>
</svg>
