<?xml version="1.0" standalone="no"?>
<!DOCTYPE svg PUBLIC "-//W3C//DTD SVG 20010904//EN"
 "http://www.w3.org/TR/2001/REC-SVG-20010904/DTD/svg10.dtd">
<svg version="1.0" xmlns="http://www.w3.org/2000/svg"
 width="512.000000pt" height="512.000000pt" viewBox="0 0 512.000000 512.000000"
 preserveAspectRatio="xMidYMid meet">
<metadata>
Created by potrace 1.16, written by Peter Selinger 2001-2019
</metadata>
<g transform="translate(0.000000,512.000000) scale(0.100000,-0.100000)"
fill="#000000" stroke="none">
<path d="M2105 5092 c-45 -15 -104 -42 -132 -60 -77 -50 -166 -150 -207 -234
-54 -109 -66 -182 -66 -413 0 -189 1 -203 23 -245 31 -61 65 -83 134 -88 49
-3 64 0 93 20 19 13 45 39 57 57 22 32 23 43 23 231 0 244 8 280 83 354 29 28
70 58 92 66 33 12 161 15 735 17 l695 2 -203 -69 c-112 -38 -223 -80 -247 -94
-91 -54 -174 -175 -195 -285 -6 -35 -10 -637 -10 -1723 l0 -1669 -367 3 c-363
3 -369 3 -421 27 -67 30 -127 98 -147 164 -11 38 -15 102 -15 247 0 188 -1
199 -23 231 -12 18 -38 44 -57 57 -29 20 -44 23 -93 20 -69 -5 -103 -27 -134
-88 -22 -42 -23 -56 -23 -245 0 -137 5 -222 15 -270 43 -205 199 -377 397
-440 79 -25 81 -25 474 -25 l394 0 0 -125 c0 -68 5 -148 11 -177 28 -129 114
-240 234 -299 63 -31 78 -34 175 -37 l105 -3 687 230 c728 243 759 256 829
340 16 20 44 65 62 101 l32 65 0 2040 0 2040 -28 57 c-44 89 -116 161 -205
205 l-76 38 -1310 2 -1311 3 -80 -28z m2648 -322 c15 -12 31 -38 37 -58 11
-40 15 -3797 4 -3864 -4 -21 -16 -49 -28 -62 -17 -17 -178 -75 -672 -240 -357
-119 -664 -216 -681 -216 -22 0 -44 10 -65 29 l-33 29 -3 1950 -2 1949 22 33
c22 32 45 41 673 251 358 120 666 218 686 218 22 1 46 -7 62 -19z"/>
<path d="M1314 3830 c-33 -13 -82 -77 -90 -115 -16 -86 -14 -88 289 -392 l282
-283 -845 0 c-826 0 -846 -1 -878 -20 -48 -30 -72 -75 -72 -140 0 -65 24 -110
72 -140 32 -19 52 -20 878 -20 l845 0 -282 -282 c-243 -244 -282 -288 -288
-320 -10 -53 1 -102 32 -138 36 -43 74 -60 136 -60 44 0 61 5 93 29 68 50 842
835 853 864 14 36 14 98 0 134 -11 29 -785 814 -853 864 -33 24 -48 29 -95 28
-31 0 -65 -4 -77 -9z"/>
</g>
</svg>
