<?xml version="1.0" standalone="no"?>
<!DOCTYPE svg PUBLIC "-//W3C//DTD SVG 20010904//EN"
 "http://www.w3.org/TR/2001/REC-SVG-20010904/DTD/svg10.dtd">
<svg version="1.0" xmlns="http://www.w3.org/2000/svg"
 width="512.000000pt" height="512.000000pt" viewBox="0 0 512.000000 512.000000"
 preserveAspectRatio="xMidYMid meet">
<metadata>
Created by potrace 1.16, written by Peter Selinger 2001-2019
</metadata>
<g transform="translate(0.000000,512.000000) scale(0.100000,-0.100000)"
fill="#000000" stroke="none">
<path d="M2240 5105 c-389 -48 -766 -188 -1091 -404 -504 -335 -871 -825
-1043 -1395 -41 -132 -81 -333 -96 -468 -13 -125 -13 -431 0 -556 108 -1014
825 -1880 1804 -2176 132 -41 333 -81 468 -96 125 -13 431 -13 556 0 592 63
1141 332 1563 766 289 299 494 645 613 1038 74 243 106 468 106 746 0 209 -10
324 -46 505 -181 920 -867 1676 -1768 1949 -132 41 -333 81 -468 96 -131 14
-469 11 -598 -5z m633 -291 c678 -101 1256 -478 1622 -1059 122 -193 235 -469
284 -692 43 -192 54 -292 54 -503 0 -279 -30 -464 -118 -727 -110 -330 -293
-622 -549 -879 -359 -358 -776 -567 -1298 -650 -71 -11 -167 -17 -308 -17
-279 0 -464 30 -727 118 -330 110 -622 293 -879 549 -358 359 -567 776 -650
1298 -23 141 -23 475 0 616 66 415 203 743 448 1072 91 122 306 337 428 428
374 278 785 432 1245 466 90 7 348 -5 448 -20z"/>
<path d="M2425 4584 c-407 -33 -778 -173 -1097 -415 -106 -81 -296 -271 -377
-377 -358 -473 -493 -1059 -376 -1640 80 -394 285 -766 576 -1048 80 -76 220
-194 232 -194 3 0 7 127 10 282 5 317 8 335 78 478 62 124 171 231 300 293
154 74 134 72 789 72 655 0 635 2 789 -72 129 -62 238 -169 300 -293 70 -143
73 -161 78 -477 3 -156 7 -283 9 -283 12 0 157 121 233 194 229 222 416 519
515 818 210 635 92 1332 -315 1870 -81 106 -271 296 -377 377 -275 208 -604
348 -932 395 -109 16 -348 27 -435 20z m306 -749 c241 -63 437 -259 500 -502
24 -95 26 -234 5 -326 -72 -309 -359 -537 -676 -537 -269 0 -527 169 -636 417
-37 83 -55 174 -55 277 1 347 251 633 606 690 52 8 190 -2 256 -19z"/>
</g>
</svg>
